<?xml version="1.0" standalone="no"?>
<!DOCTYPE svg PUBLIC "-//W3C//DTD SVG 20010904//EN"
 "http://www.w3.org/TR/2001/REC-SVG-20010904/DTD/svg10.dtd">
<svg version="1.0" xmlns="http://www.w3.org/2000/svg"
 width="512.000000pt" height="512.000000pt" viewBox="0 0 512.000000 512.000000"
 preserveAspectRatio="xMidYMid meet">

<g transform="translate(0.000000,512.000000) scale(0.100000,-0.100000)"
fill="#000000" stroke="none">
<path d="M544 4748 c-273 -283 -489 -740 -535 -1128 -22 -190 -2 -350 76 -605
86 -284 143 -615 191 -1115 13 -127 17 -331 21 -878 l5 -712 223 0 223 0 6 58
c3 31 20 221 36 422 51 606 88 902 156 1219 55 258 95 387 209 676 l28 71 132
-136 c257 -264 396 -428 525 -623 103 -154 158 -268 219 -457 89 -272 206
-475 386 -667 292 -314 688 -509 1125 -553 67 -7 325 -10 710 -8 l605 3 51 23
c177 80 238 311 121 463 -17 23 -279 259 -582 524 l-550 483 -62 -68 c-141
-153 -336 -230 -552 -217 -164 10 -293 68 -411 187 -63 64 -98 115 -224 325
-591 989 -1095 1696 -1674 2348 -132 148 -390 417 -401 417 -4 0 -29 -24 -57
-52z"/>
</g>
</svg>
